<svg width="47" height="47" viewBox="0 0 47 47" fill="none" xmlns="http://www.w3.org/2000/svg">
<path d="M28.8214 35L34 29.8214L10.1786 6H5V11.1786L28.8214 35Z" fill="#CCD6DD"/>
<path d="M6 6V11.1786L29.451 35L32 32.4107L6 6Z" fill="#9AAAB4"/>
<path d="M17.1786 35L12 29.8214L35.8214 6H41V11.1786L17.1786 35Z" fill="#CCD6DD"/>
<path d="M41 6V11.1786L16.6471 35L14 32.4107L41 6Z" fill="#9AAAB4"/>
<path d="M16.8906 35.9844L41.8594 11.0156V5.14062H35.9844L11.0156 30.1094M8.07812 27.1719L12.4844 34.5156L18.3594 38.9219L8.07812 27.1719ZM5.14062 38.9219L8.07812 41.8594L5.14062 38.9219ZM12.4844 34.5156L8.07812 38.9219L12.4844 34.5156Z" stroke="#BE1931" stroke-width="3" stroke-linecap="round" stroke-linejoin="round"/>
<path d="M28.8 35.24L22.5 28.76M28.1 23L34.4 29.48M33 33.8L37.2 26.6L27.4 38.12L33 33.8ZM33 33.8L37.2 38.12M40 38.12L37.2 41M16.9 23L5 10.76V5H10.6L22.5 17.24" stroke="#1965BE" stroke-width="3" stroke-linecap="round" stroke-linejoin="round"/>
</svg>
