<svg width="139" height="66" viewBox="0 0 139 66" fill="none" xmlns="http://www.w3.org/2000/svg">
<g clip-path="url(#clip0_1333_450)">
<path d="M64.9361 36.6187C64.6044 53.7053 61.4973 58.3214 44.4089 57.9895C34.6223 57.7995 29.3623 55.6223 20.475 55.4497C15.2174 55.3476 15.2998 47.2571 15.4416 39.9553C15.5872 32.4581 15.4034 23.6991 19.3879 19.8664C30.2596 9.4088 48.989 1.69097 53.2283 16.9673C64.7856 18.0007 65.268 19.5304 64.9361 36.6187Z" fill="#BE1931"/>
<path d="M19.0557 48.4199C18.9788 52.3818 17.3835 55.9693 13.7486 55.8987L7.49379 55.7773C3.85892 55.7067 1.20434 52.0367 1.28127 48.0747L1.68633 27.2147L19.4608 27.5598L19.0557 48.4199Z" fill="#99AAB5"/>
<path d="M19.2074 40.6082C19.1227 44.97 17.5215 48.8597 13.8867 48.7891L7.63185 48.6676C3.99698 48.5971 1.34827 44.6249 1.43296 40.263L1.68606 27.229C1.77079 22.8654 4.54921 20.158 8.18408 20.2285L14.4389 20.35C18.0738 20.4206 19.5452 23.2106 19.4605 27.5742L19.2074 40.6082Z" fill="#CCD6DD"/>
<path d="M46.5844 9.04655C47.5818 10.3373 49.0512 12.4053 44.4084 13.2415C35.4866 14.8464 27.5979 19.6613 31.8627 18.3323C37.2296 16.6584 53.2265 16.969 53.2265 16.969C52.0184 12.6123 49.6306 10.1317 46.5844 9.04655V9.04655Z" fill="#A0041E"/>
<path d="M15.6756 39.3536C15.6374 41.3177 14.639 43.4694 13.002 43.4376L7.07777 43.3226C5.44253 43.2908 4.97276 41.1106 5.0109 39.1465L5.18347 30.2593C5.22158 28.297 5.75315 27.2938 7.3884 27.3256L13.3126 27.4406C14.9496 27.4724 15.8862 28.5041 15.8481 30.4664L15.6756 39.3536V39.3536Z" fill="#E1E8ED"/>
</g>
<g clip-path="url(#clip1_1333_450)">
<path d="M75.003 36.841C75.003 53.9308 78.0199 58.6063 95.1115 58.6063C104.9 58.6063 110.201 56.5317 119.09 56.5317C124.349 56.5317 124.423 48.441 124.423 41.1379C124.423 33.6392 124.777 24.8854 120.868 20.9761C110.201 10.3094 91.6252 2.22943 87.0901 17.4205C75.515 18.2294 75.003 19.7494 75.003 36.841Z" fill="#1965BE"/>
<path d="M120.646 49.5308C120.646 53.4934 122.171 57.1112 125.807 57.1112H132.063C135.698 57.1112 138.423 53.4934 138.423 49.5308V28.6667H120.646V49.5308Z" fill="#99AAB5"/>
<path d="M120.646 41.7175C120.646 46.0801 122.171 50.0001 125.807 50.0001H132.063C135.698 50.0001 138.423 46.0801 138.423 41.7175V28.681C138.423 24.3166 135.698 21.5557 132.063 21.5557H125.807C122.171 21.5557 120.646 24.3166 120.646 28.681V41.7175Z" fill="#CCD6DD"/>
<path d="M93.8866 9.63013C92.8643 10.9012 91.355 12.9403 95.9808 13.8666C104.87 15.6443 112.663 20.6115 108.425 19.1999C103.092 17.4221 87.0919 17.4221 87.0919 17.4221C88.3843 13.0897 90.8199 10.6559 93.8866 9.63013V9.63013Z" fill="#0442A0"/>
<path d="M124.201 40.5316C124.201 42.4961 125.158 44.6667 126.795 44.6667H132.72C134.356 44.6667 134.868 42.4961 134.868 40.5316V31.6427C134.868 29.6801 134.356 28.6667 132.72 28.6667H126.795C125.158 28.6667 124.201 29.6801 124.201 31.6427V40.5316V40.5316Z" fill="#E1E8ED"/>
</g>
<defs>
<clipPath id="clip0_1333_450">
<rect width="64" height="64" fill="white" transform="translate(66.192 1.79565) rotate(91.1124)"/>
</clipPath>
<clipPath id="clip1_1333_450">
<rect width="64" height="64" fill="white" transform="matrix(0 1 1 0 74.4234 2)"/>
</clipPath>
</defs>
</svg>
